<mxfile host="65bd71144e">
    <diagram id="1Iw5H5zncnqYSbrTsxRB" name="Page-1">
        <mxGraphModel dx="1088" dy="446" grid="1" gridSize="10" guides="1" tooltips="1" connect="1" arrows="1" fold="1" page="1" pageScale="1" pageWidth="827" pageHeight="1169" math="0" shadow="0">
            <root>
                <mxCell id="0"/>
                <mxCell id="1" parent="0"/>
                <mxCell id="PF3yWMWYn2p4N7kOVZgF-33" value="" style="rounded=1;whiteSpace=wrap;html=1;fontSize=11;dashed=1;dashPattern=1 4;fillColor=#d5e8d4;strokeColor=#82b366;" parent="1" vertex="1">
                    <mxGeometry x="550" y="125" width="140" height="187" as="geometry"/>
                </mxCell>
                <mxCell id="PF3yWMWYn2p4N7kOVZgF-3" value="" style="edgeStyle=orthogonalEdgeStyle;rounded=1;orthogonalLoop=1;jettySize=auto;html=1;" parent="1" source="PF3yWMWYn2p4N7kOVZgF-1" target="PF3yWMWYn2p4N7kOVZgF-2" edge="1">
                    <mxGeometry relative="1" as="geometry"/>
                </mxCell>
                <mxCell id="PF3yWMWYn2p4N7kOVZgF-1" value="Data collection" style="rounded=1;whiteSpace=wrap;html=1;" parent="1" vertex="1">
                    <mxGeometry x="10" y="150" width="100" height="60" as="geometry"/>
                </mxCell>
                <mxCell id="PF3yWMWYn2p4N7kOVZgF-6" value="" style="edgeStyle=orthogonalEdgeStyle;rounded=1;orthogonalLoop=1;jettySize=auto;html=1;" parent="1" source="PF3yWMWYn2p4N7kOVZgF-2" target="PF3yWMWYn2p4N7kOVZgF-5" edge="1">
                    <mxGeometry relative="1" as="geometry"/>
                </mxCell>
                <mxCell id="PF3yWMWYn2p4N7kOVZgF-2" value="Data exploration" style="rounded=1;whiteSpace=wrap;html=1;" parent="1" vertex="1">
                    <mxGeometry x="10" y="230" width="100" height="60" as="geometry"/>
                </mxCell>
                <mxCell id="PF3yWMWYn2p4N7kOVZgF-4" value="Data preparation" style="text;html=1;align=center;verticalAlign=middle;resizable=0;points=[];autosize=1;strokeColor=none;fillColor=none;rounded=1;" parent="1" vertex="1">
                    <mxGeometry x="15" y="115" width="110" height="30" as="geometry"/>
                </mxCell>
                <mxCell id="PF3yWMWYn2p4N7kOVZgF-8" value="" style="edgeStyle=orthogonalEdgeStyle;rounded=1;orthogonalLoop=1;jettySize=auto;html=1;" parent="1" source="PF3yWMWYn2p4N7kOVZgF-5" target="PF3yWMWYn2p4N7kOVZgF-7" edge="1">
                    <mxGeometry relative="1" as="geometry"/>
                </mxCell>
                <mxCell id="PF3yWMWYn2p4N7kOVZgF-5" value="Data cleaning" style="whiteSpace=wrap;html=1;rounded=1;" parent="1" vertex="1">
                    <mxGeometry x="150" y="230" width="100" height="60" as="geometry"/>
                </mxCell>
                <mxCell id="PF3yWMWYn2p4N7kOVZgF-11" value="" style="edgeStyle=orthogonalEdgeStyle;rounded=1;orthogonalLoop=1;jettySize=auto;html=1;" parent="1" source="PF3yWMWYn2p4N7kOVZgF-7" target="PF3yWMWYn2p4N7kOVZgF-10" edge="1">
                    <mxGeometry relative="1" as="geometry">
                        <Array as="points">
                            <mxPoint x="280" y="170"/>
                            <mxPoint x="280" y="170"/>
                        </Array>
                    </mxGeometry>
                </mxCell>
                <mxCell id="PF3yWMWYn2p4N7kOVZgF-7" value="Data preparation" style="whiteSpace=wrap;html=1;rounded=1;" parent="1" vertex="1">
                    <mxGeometry x="150" y="150" width="100" height="60" as="geometry"/>
                </mxCell>
                <mxCell id="PF3yWMWYn2p4N7kOVZgF-9" value="Model training&lt;br&gt;" style="text;html=1;align=center;verticalAlign=middle;resizable=0;points=[];autosize=1;strokeColor=none;fillColor=none;rounded=1;" parent="1" vertex="1">
                    <mxGeometry x="575" y="120" width="100" height="30" as="geometry"/>
                </mxCell>
                <mxCell id="l4MfPg7lu9z-eHBVjWGc-1" style="edgeStyle=orthogonalEdgeStyle;rounded=1;orthogonalLoop=1;jettySize=auto;html=1;entryX=0.032;entryY=0.498;entryDx=0;entryDy=0;entryPerimeter=0;" parent="1" source="PF3yWMWYn2p4N7kOVZgF-10" target="PF3yWMWYn2p4N7kOVZgF-22" edge="1">
                    <mxGeometry relative="1" as="geometry"/>
                </mxCell>
                <mxCell id="l4MfPg7lu9z-eHBVjWGc-2" value="Formalized&lt;br&gt;dataset" style="edgeLabel;html=1;align=center;verticalAlign=middle;resizable=0;points=[];rounded=1;" parent="l4MfPg7lu9z-eHBVjWGc-1" connectable="0" vertex="1">
                    <mxGeometry x="-0.5027" y="2" relative="1" as="geometry">
                        <mxPoint x="10" y="14" as="offset"/>
                    </mxGeometry>
                </mxCell>
                <mxCell id="PF3yWMWYn2p4N7kOVZgF-10" value="Feature engineering" style="whiteSpace=wrap;html=1;rounded=1;" parent="1" vertex="1">
                    <mxGeometry x="290" y="150" width="100" height="36" as="geometry"/>
                </mxCell>
                <mxCell id="l4MfPg7lu9z-eHBVjWGc-5" style="edgeStyle=orthogonalEdgeStyle;rounded=1;orthogonalLoop=1;jettySize=auto;html=1;entryX=0.034;entryY=0.498;entryDx=0;entryDy=0;entryPerimeter=0;" parent="1" source="PF3yWMWYn2p4N7kOVZgF-12" target="PF3yWMWYn2p4N7kOVZgF-22" edge="1">
                    <mxGeometry relative="1" as="geometry"/>
                </mxCell>
                <mxCell id="PF3yWMWYn2p4N7kOVZgF-12" value="Model selection" style="whiteSpace=wrap;html=1;rounded=1;" parent="1" vertex="1">
                    <mxGeometry x="290" y="250" width="100" height="40" as="geometry"/>
                </mxCell>
                <mxCell id="PF3yWMWYn2p4N7kOVZgF-30" style="edgeStyle=orthogonalEdgeStyle;rounded=1;orthogonalLoop=1;jettySize=auto;html=1;entryX=0.5;entryY=0;entryDx=0;entryDy=0;fontSize=11;endArrow=classic;endFill=1;dashed=1;curved=1;exitX=0.5;exitY=0;exitDx=0;exitDy=0;" parent="1" source="PF3yWMWYn2p4N7kOVZgF-34" target="PF3yWMWYn2p4N7kOVZgF-10" edge="1">
                    <mxGeometry relative="1" as="geometry">
                        <mxPoint x="710" y="130" as="sourcePoint"/>
                        <Array as="points">
                            <mxPoint x="761" y="110"/>
                            <mxPoint x="340" y="110"/>
                        </Array>
                    </mxGeometry>
                </mxCell>
                <mxCell id="PF3yWMWYn2p4N7kOVZgF-32" value="Iterate" style="edgeLabel;html=1;align=center;verticalAlign=middle;resizable=0;points=[];fontSize=11;rounded=1;" parent="PF3yWMWYn2p4N7kOVZgF-30" connectable="0" vertex="1">
                    <mxGeometry x="0.2798" y="-1" relative="1" as="geometry">
                        <mxPoint x="63" y="1" as="offset"/>
                    </mxGeometry>
                </mxCell>
                <mxCell id="PF3yWMWYn2p4N7kOVZgF-17" value="Materialized &lt;br&gt;learning" style="ellipse;whiteSpace=wrap;html=1;rounded=1;" parent="1" vertex="1">
                    <mxGeometry x="566" y="144" width="100" height="60" as="geometry"/>
                </mxCell>
                <mxCell id="PF3yWMWYn2p4N7kOVZgF-36" style="rounded=1;orthogonalLoop=1;jettySize=auto;html=1;exitX=1;exitY=0.5;exitDx=0;exitDy=0;fontSize=11;endArrow=classic;endFill=1;edgeStyle=orthogonalEdgeStyle;entryX=0;entryY=0.5;entryDx=0;entryDy=0;" parent="1" source="PF3yWMWYn2p4N7kOVZgF-19" target="PF3yWMWYn2p4N7kOVZgF-34" edge="1">
                    <mxGeometry relative="1" as="geometry">
                        <mxPoint x="725" y="180" as="targetPoint"/>
                        <Array as="points">
                            <mxPoint x="700" y="266"/>
                            <mxPoint x="700" y="174"/>
                        </Array>
                    </mxGeometry>
                </mxCell>
                <mxCell id="PF3yWMWYn2p4N7kOVZgF-19" value="Factorized&lt;br&gt;learning" style="ellipse;whiteSpace=wrap;html=1;rounded=1;" parent="1" vertex="1">
                    <mxGeometry x="566" y="236" width="100" height="60" as="geometry"/>
                </mxCell>
                <mxCell id="PF3yWMWYn2p4N7kOVZgF-25" style="edgeStyle=orthogonalEdgeStyle;rounded=1;orthogonalLoop=1;jettySize=auto;html=1;entryX=0;entryY=0.5;entryDx=0;entryDy=0;endArrow=classic;endFill=1;exitX=0.497;exitY=0.041;exitDx=0;exitDy=0;exitPerimeter=0;" parent="1" source="PF3yWMWYn2p4N7kOVZgF-22" target="PF3yWMWYn2p4N7kOVZgF-17" edge="1">
                    <mxGeometry relative="1" as="geometry">
                        <Array as="points">
                            <mxPoint x="500" y="174"/>
                        </Array>
                    </mxGeometry>
                </mxCell>
                <mxCell id="PF3yWMWYn2p4N7kOVZgF-26" style="edgeStyle=orthogonalEdgeStyle;rounded=1;orthogonalLoop=1;jettySize=auto;html=1;endArrow=classic;endFill=1;exitX=0.498;exitY=0.96;exitDx=0;exitDy=0;entryX=0;entryY=0.5;entryDx=0;entryDy=0;exitPerimeter=0;" parent="1" source="PF3yWMWYn2p4N7kOVZgF-22" target="PF3yWMWYn2p4N7kOVZgF-19" edge="1">
                    <mxGeometry relative="1" as="geometry">
                        <mxPoint x="535.1999999999998" y="260.75" as="sourcePoint"/>
                        <Array as="points">
                            <mxPoint x="500" y="266"/>
                        </Array>
                    </mxGeometry>
                </mxCell>
                <mxCell id="PF3yWMWYn2p4N7kOVZgF-22" value="Cost estimator" style="rhombus;whiteSpace=wrap;html=1;rounded=1;fillColor=#dae8fc;strokeColor=#6c8ebf;" parent="1" vertex="1">
                    <mxGeometry x="450" y="182.5" width="100" height="75" as="geometry"/>
                </mxCell>
                <mxCell id="PF3yWMWYn2p4N7kOVZgF-28" value="&lt;ul style=&quot;font-size: 11px;&quot;&gt;&lt;li&gt;Hyperparameter tuning&lt;/li&gt;&lt;li&gt;Online training&lt;/li&gt;&lt;/ul&gt;" style="text;html=1;align=left;verticalAlign=middle;resizable=0;points=[];autosize=1;strokeColor=none;fillColor=none;fillStyle=dots;labelBackgroundColor=none;labelBorderColor=none;rounded=1;" parent="1" vertex="1">
                    <mxGeometry x="526" y="189" width="180" height="60" as="geometry"/>
                </mxCell>
                <mxCell id="PF3yWMWYn2p4N7kOVZgF-29" value="Data preprocessing" style="text;html=1;align=center;verticalAlign=middle;resizable=0;points=[];autosize=1;strokeColor=none;fillColor=none;rounded=1;" parent="1" vertex="1">
                    <mxGeometry x="210" y="115" width="130" height="30" as="geometry"/>
                </mxCell>
                <mxCell id="PF3yWMWYn2p4N7kOVZgF-38" value="" style="edgeStyle=orthogonalEdgeStyle;rounded=1;orthogonalLoop=1;jettySize=auto;html=1;fontSize=11;endArrow=classic;endFill=1;" parent="1" source="PF3yWMWYn2p4N7kOVZgF-34" target="PF3yWMWYn2p4N7kOVZgF-37" edge="1">
                    <mxGeometry relative="1" as="geometry"/>
                </mxCell>
                <mxCell id="PF3yWMWYn2p4N7kOVZgF-34" value="Evaluate model" style="ellipse;whiteSpace=wrap;html=1;fontSize=11;rounded=1;" parent="1" vertex="1">
                    <mxGeometry x="711" y="144" width="100" height="60" as="geometry"/>
                </mxCell>
                <mxCell id="PF3yWMWYn2p4N7kOVZgF-37" value="Deploy model" style="ellipse;whiteSpace=wrap;html=1;fontSize=11;rounded=1;" parent="1" vertex="1">
                    <mxGeometry x="711" y="236" width="100" height="60" as="geometry"/>
                </mxCell>
                <mxCell id="l4MfPg7lu9z-eHBVjWGc-4" style="edgeStyle=orthogonalEdgeStyle;rounded=1;orthogonalLoop=1;jettySize=auto;html=1;entryX=0.034;entryY=0.498;entryDx=0;entryDy=0;entryPerimeter=0;" parent="1" source="l4MfPg7lu9z-eHBVjWGc-3" target="PF3yWMWYn2p4N7kOVZgF-22" edge="1">
                    <mxGeometry relative="1" as="geometry"/>
                </mxCell>
                <mxCell id="l4MfPg7lu9z-eHBVjWGc-3" value="Hardware specifications" style="whiteSpace=wrap;html=1;rounded=1;" parent="1" vertex="1">
                    <mxGeometry x="290" y="200" width="100" height="40" as="geometry"/>
                </mxCell>
                <mxCell id="PF3yWMWYn2p4N7kOVZgF-35" value="" style="edgeStyle=orthogonalEdgeStyle;rounded=1;orthogonalLoop=1;jettySize=auto;html=1;fontSize=11;endArrow=classic;endFill=1;exitX=1;exitY=0.5;exitDx=0;exitDy=0;entryX=0;entryY=0.503;entryDx=0;entryDy=0;entryPerimeter=0;" parent="1" source="PF3yWMWYn2p4N7kOVZgF-17" target="PF3yWMWYn2p4N7kOVZgF-34" edge="1">
                    <mxGeometry relative="1" as="geometry">
                        <mxPoint x="725" y="180" as="targetPoint"/>
                    </mxGeometry>
                </mxCell>
            </root>
        </mxGraphModel>
    </diagram>
</mxfile>